<mxfile host="65bd71144e">
    <diagram id="K2-sKBXHWjVMKEcbc7tX" name="Page-1">
        <mxGraphModel dx="989" dy="1914" grid="1" gridSize="10" guides="1" tooltips="1" connect="1" arrows="1" fold="1" page="1" pageScale="1" pageWidth="1600" pageHeight="1200" math="0" shadow="0">
            <root>
                <mxCell id="0"/>
                <mxCell id="1" parent="0"/>
                <mxCell id="7" value="&lt;font style=&quot;font-size: 16px&quot;&gt;Create patient account&lt;/font&gt;" style="ellipse;whiteSpace=wrap;html=1;fontSize=15;strokeWidth=7;" parent="1" vertex="1">
                    <mxGeometry x="650" y="-470" width="200" height="110" as="geometry"/>
                </mxCell>
                <mxCell id="9" value="&lt;font style=&quot;font-size: 16px&quot;&gt;Delete appointment&lt;/font&gt;" style="ellipse;whiteSpace=wrap;html=1;fontSize=15;strokeWidth=7;" parent="1" vertex="1">
                    <mxGeometry x="550" y="370" width="190" height="110" as="geometry"/>
                </mxCell>
                <mxCell id="11" value="&lt;span style=&quot;font-size: 16px&quot;&gt;Print patient details&lt;/span&gt;" style="ellipse;whiteSpace=wrap;html=1;fontSize=15;strokeWidth=7;" parent="1" vertex="1">
                    <mxGeometry x="1600" y="25" width="190" height="110" as="geometry"/>
                </mxCell>
                <mxCell id="13" value="User/Patient" style="shape=umlActor;verticalLabelPosition=bottom;verticalAlign=top;html=1;outlineConnect=0;fontSize=16;strokeWidth=7;" parent="1" vertex="1">
                    <mxGeometry x="60" y="310" width="50" height="80" as="geometry"/>
                </mxCell>
                <mxCell id="73" style="edgeStyle=none;html=1;exitX=0;exitY=1;exitDx=0;exitDy=0;exitPerimeter=0;entryX=1;entryY=0.5;entryDx=0;entryDy=0;dashed=1;strokeColor=default;strokeWidth=1;" parent="1" source="14" target="43" edge="1">
                    <mxGeometry relative="1" as="geometry"/>
                </mxCell>
                <mxCell id="79" style="edgeStyle=none;html=1;exitX=0.5;exitY=0;exitDx=0;exitDy=0;exitPerimeter=0;entryX=0.584;entryY=1.009;entryDx=0;entryDy=0;entryPerimeter=0;" parent="1" source="14" target="76" edge="1">
                    <mxGeometry relative="1" as="geometry"/>
                </mxCell>
                <mxCell id="100" style="edgeStyle=none;html=1;exitX=0;exitY=0.3333333333333333;exitDx=0;exitDy=0;exitPerimeter=0;entryX=1;entryY=0.5;entryDx=0;entryDy=0;" edge="1" parent="1" source="14" target="24">
                    <mxGeometry relative="1" as="geometry"/>
                </mxCell>
                <mxCell id="14" value="Doctor" style="shape=umlActor;verticalLabelPosition=bottom;verticalAlign=top;html=1;outlineConnect=0;fontSize=16;strokeWidth=7;" parent="1" vertex="1">
                    <mxGeometry x="1970" y="520" width="30" height="60" as="geometry"/>
                </mxCell>
                <mxCell id="92" style="edgeStyle=none;html=1;exitX=0.5;exitY=0;exitDx=0;exitDy=0;exitPerimeter=0;entryX=1.013;entryY=0.666;entryDx=0;entryDy=0;entryPerimeter=0;" parent="1" source="15" target="91" edge="1">
                    <mxGeometry relative="1" as="geometry"/>
                </mxCell>
                <mxCell id="15" value="Admin/Manager" style="shape=umlActor;verticalLabelPosition=bottom;verticalAlign=top;html=1;outlineConnect=0;fontSize=16;strokeWidth=7;" parent="1" vertex="1">
                    <mxGeometry x="1480" y="-510" width="30" height="60" as="geometry"/>
                </mxCell>
                <mxCell id="16" value="&lt;font style=&quot;font-size: 16px&quot;&gt;Create an appointment&lt;/font&gt;" style="ellipse;whiteSpace=wrap;html=1;fontSize=15;strokeWidth=7;" parent="1" vertex="1">
                    <mxGeometry x="250" y="160" width="210" height="110" as="geometry"/>
                </mxCell>
                <mxCell id="74" value="&amp;lt;&amp;lt;extend&amp;gt;&amp;gt;" style="edgeStyle=none;html=1;exitX=0.5;exitY=1;exitDx=0;exitDy=0;entryX=0.5;entryY=0;entryDx=0;entryDy=0;dashed=1;" parent="1" source="23" target="16" edge="1">
                    <mxGeometry relative="1" as="geometry"/>
                </mxCell>
                <mxCell id="89" style="edgeStyle=none;html=1;exitX=1;exitY=1;exitDx=0;exitDy=0;entryX=0;entryY=0;entryDx=0;entryDy=0;dashed=1;" parent="1" source="23" target="24" edge="1">
                    <mxGeometry relative="1" as="geometry"/>
                </mxCell>
                <mxCell id="23" value="&lt;font style=&quot;font-size: 16px&quot;&gt;Login to personal page&lt;/font&gt;" style="ellipse;whiteSpace=wrap;html=1;fontSize=15;strokeWidth=7;" parent="1" vertex="1">
                    <mxGeometry x="250" y="-90" width="190" height="110" as="geometry"/>
                </mxCell>
                <mxCell id="24" value="&lt;span style=&quot;font-size: 16px&quot;&gt;Send messages&lt;/span&gt;" style="ellipse;whiteSpace=wrap;html=1;fontSize=15;strokeWidth=7;" parent="1" vertex="1">
                    <mxGeometry x="940" y="-30" width="190" height="110" as="geometry"/>
                </mxCell>
                <mxCell id="25" value="&lt;font style=&quot;font-size: 16px&quot;&gt;Update information&lt;/font&gt;" style="ellipse;whiteSpace=wrap;html=1;fontSize=15;strokeWidth=7;" parent="1" vertex="1">
                    <mxGeometry x="600" y="-260" width="190" height="110" as="geometry"/>
                </mxCell>
                <mxCell id="29" value="" style="endArrow=none;dashed=1;html=1;fontSize=16;entryX=0;entryY=0.5;entryDx=0;entryDy=0;startArrow=none;" parent="1" source="31" target="30" edge="1">
                    <mxGeometry width="50" height="50" relative="1" as="geometry">
                        <mxPoint x="480" y="355" as="sourcePoint"/>
                        <mxPoint x="550.7106781186548" y="305" as="targetPoint"/>
                    </mxGeometry>
                </mxCell>
                <mxCell id="30" value="Select date/time/purpose" style="ellipse;whiteSpace=wrap;html=1;fontSize=15;strokeWidth=7;" parent="1" vertex="1">
                    <mxGeometry x="650" y="40" width="190" height="110" as="geometry"/>
                </mxCell>
                <mxCell id="31" value="&amp;lt;&amp;lt;include&amp;gt;&amp;gt;" style="text;html=1;resizable=0;autosize=1;align=center;verticalAlign=middle;points=[];fillColor=none;strokeColor=none;rounded=0;fontSize=16;rotation=-5;" parent="1" vertex="1">
                    <mxGeometry x="490" y="100" width="100" height="20" as="geometry"/>
                </mxCell>
                <mxCell id="33" value="" style="endArrow=none;dashed=1;html=1;fontSize=16;entryX=0;entryY=0.5;entryDx=0;entryDy=0;" parent="1" source="16" target="31" edge="1">
                    <mxGeometry width="50" height="50" relative="1" as="geometry">
                        <mxPoint x="479.23578464007505" y="298.3763213773865" as="sourcePoint"/>
                        <mxPoint x="690.0000000000002" y="285" as="targetPoint"/>
                    </mxGeometry>
                </mxCell>
                <mxCell id="85" style="edgeStyle=none;html=1;exitX=0;exitY=0;exitDx=0;exitDy=0;dashed=1;startArrow=none;" parent="1" source="58" target="83" edge="1">
                    <mxGeometry relative="1" as="geometry"/>
                </mxCell>
                <mxCell id="86" value="&amp;lt;&amp;lt;extends&amp;gt;&amp;gt;" style="edgeStyle=none;html=1;exitX=0;exitY=1;exitDx=0;exitDy=0;entryX=1;entryY=0.5;entryDx=0;entryDy=0;dashed=1;" parent="1" source="36" target="77" edge="1">
                    <mxGeometry relative="1" as="geometry">
                        <Array as="points"/>
                    </mxGeometry>
                </mxCell>
                <mxCell id="87" value="&amp;lt;&amp;lt;extends&amp;gt;&amp;gt;" style="edgeStyle=none;html=1;exitX=0.5;exitY=0;exitDx=0;exitDy=0;entryX=0.611;entryY=1.031;entryDx=0;entryDy=0;entryPerimeter=0;dashed=1;" parent="1" source="36" target="11" edge="1">
                    <mxGeometry relative="1" as="geometry"/>
                </mxCell>
                <mxCell id="36" value="&lt;font style=&quot;font-size: 16px&quot;&gt;Lookup patient&lt;/font&gt;" style="ellipse;whiteSpace=wrap;html=1;fontSize=15;strokeWidth=7;" parent="1" vertex="1">
                    <mxGeometry x="1650" y="260" width="190" height="110" as="geometry"/>
                </mxCell>
                <mxCell id="41" value="" style="endArrow=none;html=1;fontSize=16;exitX=0.75;exitY=0.1;exitDx=0;exitDy=0;exitPerimeter=0;" parent="1" source="13" target="23" edge="1">
                    <mxGeometry width="50" height="50" relative="1" as="geometry">
                        <mxPoint x="770" y="370" as="sourcePoint"/>
                        <mxPoint x="820" y="320" as="targetPoint"/>
                    </mxGeometry>
                </mxCell>
                <mxCell id="43" value="Check up" style="ellipse;whiteSpace=wrap;html=1;fontSize=16;strokeWidth=7;" parent="1" vertex="1">
                    <mxGeometry x="820" y="505" width="170" height="90" as="geometry"/>
                </mxCell>
                <mxCell id="44" value="&amp;lt;&amp;lt;extend&amp;gt;&amp;gt;" style="text;html=1;resizable=0;autosize=1;align=center;verticalAlign=middle;points=[];fillColor=none;strokeColor=none;rounded=0;fontSize=16;rotation=15;" parent="1" vertex="1">
                    <mxGeometry x="540" y="230" width="100" height="20" as="geometry"/>
                </mxCell>
                <mxCell id="45" value="" style="endArrow=none;dashed=1;html=1;fontSize=16;entryX=0;entryY=0.5;entryDx=0;entryDy=0;exitX=0.952;exitY=0.858;exitDx=0;exitDy=0;exitPerimeter=0;" parent="1" source="16" target="44" edge="1">
                    <mxGeometry width="50" height="50" relative="1" as="geometry">
                        <mxPoint x="589.9985343498761" y="315.99023189668696" as="sourcePoint"/>
                        <mxPoint x="840.9800000000002" y="385" as="targetPoint"/>
                    </mxGeometry>
                </mxCell>
                <mxCell id="46" value="" style="endArrow=none;dashed=1;html=1;dashPattern=1 3;strokeWidth=2;fontSize=16;entryX=0.925;entryY=0.956;entryDx=0;entryDy=0;entryPerimeter=0;" parent="1" source="43" target="44" edge="1">
                    <mxGeometry width="50" height="50" relative="1" as="geometry">
                        <mxPoint x="450" y="510" as="sourcePoint"/>
                        <mxPoint x="500" y="460" as="targetPoint"/>
                    </mxGeometry>
                </mxCell>
                <mxCell id="47" value="&amp;lt;&amp;lt;extend&amp;gt;&amp;gt;" style="text;html=1;resizable=0;autosize=1;align=center;verticalAlign=middle;points=[];fillColor=none;strokeColor=none;rounded=0;fontSize=16;rotation=30;" parent="1" vertex="1">
                    <mxGeometry x="400" y="350" width="100" height="20" as="geometry"/>
                </mxCell>
                <mxCell id="50" value="" style="endArrow=none;dashed=1;html=1;dashPattern=1 3;strokeWidth=2;fontSize=16;exitX=0.584;exitY=0.993;exitDx=0;exitDy=0;exitPerimeter=0;entryX=-0.004;entryY=0.547;entryDx=0;entryDy=0;entryPerimeter=0;" parent="1" source="16" target="47" edge="1">
                    <mxGeometry width="50" height="50" relative="1" as="geometry">
                        <mxPoint x="450" y="510" as="sourcePoint"/>
                        <mxPoint x="370" y="410" as="targetPoint"/>
                    </mxGeometry>
                </mxCell>
                <mxCell id="51" value="" style="endArrow=none;dashed=1;html=1;dashPattern=1 3;strokeWidth=2;fontSize=16;" parent="1" source="47" target="9" edge="1">
                    <mxGeometry width="50" height="50" relative="1" as="geometry">
                        <mxPoint x="392.63999999999965" y="319.22999999999956" as="sourcePoint"/>
                        <mxPoint x="438.75183539393583" y="399.2085500679832" as="targetPoint"/>
                    </mxGeometry>
                </mxCell>
                <mxCell id="57" value="&amp;lt;&amp;lt;extends&amp;gt;&amp;gt;" style="edgeStyle=none;html=1;exitX=0;exitY=0.5;exitDx=0;exitDy=0;entryX=1;entryY=0.5;entryDx=0;entryDy=0;strokeColor=default;dashed=1;strokeWidth=1;" parent="1" source="36" target="56" edge="1">
                    <mxGeometry width="50" height="50" relative="1" as="geometry">
                        <mxPoint x="560" y="-108" as="sourcePoint"/>
                        <mxPoint x="810" y="-120" as="targetPoint"/>
                    </mxGeometry>
                </mxCell>
                <mxCell id="62" value="&amp;lt;&amp;lt;include&amp;gt;&amp;gt;" style="text;html=1;resizable=0;autosize=1;align=center;verticalAlign=middle;points=[];fillColor=none;strokeColor=none;rounded=0;fontSize=16;rotation=0;" parent="1" vertex="1">
                    <mxGeometry x="450" y="-160" width="100" height="20" as="geometry"/>
                </mxCell>
                <mxCell id="63" value="" style="endArrow=none;dashed=1;html=1;dashPattern=1 3;strokeWidth=2;fontSize=16;entryX=-0.003;entryY=0.608;entryDx=0;entryDy=0;entryPerimeter=0;" parent="1" source="23" target="62" edge="1">
                    <mxGeometry width="50" height="50" relative="1" as="geometry">
                        <mxPoint x="960" y="172" as="sourcePoint"/>
                        <mxPoint x="740" y="220" as="targetPoint"/>
                    </mxGeometry>
                </mxCell>
                <mxCell id="64" value="" style="endArrow=none;dashed=1;html=1;dashPattern=1 3;strokeWidth=2;fontSize=16;exitX=1.009;exitY=0.478;exitDx=0;exitDy=0;exitPerimeter=0;entryX=0.005;entryY=0.612;entryDx=0;entryDy=0;entryPerimeter=0;" parent="1" source="62" target="25" edge="1">
                    <mxGeometry width="50" height="50" relative="1" as="geometry">
                        <mxPoint x="970" y="182" as="sourcePoint"/>
                        <mxPoint x="1220" y="170" as="targetPoint"/>
                    </mxGeometry>
                </mxCell>
                <mxCell id="65" value="&lt;font style=&quot;font-size: 16px&quot;&gt;Access history&lt;/font&gt;" style="ellipse;whiteSpace=wrap;html=1;fontSize=15;strokeWidth=7;" parent="1" vertex="1">
                    <mxGeometry x="600" y="-130" width="190" height="110" as="geometry"/>
                </mxCell>
                <mxCell id="69" value="&amp;lt;&amp;lt;extend&amp;gt;&amp;gt;" style="text;html=1;resizable=0;autosize=1;align=center;verticalAlign=middle;points=[];fillColor=none;strokeColor=none;rounded=0;fontSize=16;rotation=-5;" parent="1" vertex="1">
                    <mxGeometry x="459.99999999999994" y="-75" width="100" height="20" as="geometry"/>
                </mxCell>
                <mxCell id="70" value="" style="endArrow=none;dashed=1;html=1;dashPattern=1 3;strokeWidth=2;fontSize=16;entryX=-0.003;entryY=0.608;entryDx=0;entryDy=0;entryPerimeter=0;exitX=1;exitY=1;exitDx=0;exitDy=0;" parent="1" source="23" target="69" edge="1">
                    <mxGeometry width="50" height="50" relative="1" as="geometry">
                        <mxPoint x="305.76" y="33.75" as="sourcePoint"/>
                        <mxPoint x="10.919999999999995" y="156.25" as="targetPoint"/>
                    </mxGeometry>
                </mxCell>
                <mxCell id="71" value="" style="endArrow=none;dashed=1;html=1;dashPattern=1 3;strokeWidth=2;fontSize=16;exitX=1.009;exitY=0.478;exitDx=0;exitDy=0;exitPerimeter=0;entryX=0.045;entryY=0.702;entryDx=0;entryDy=0;entryPerimeter=0;" parent="1" source="69" target="65" edge="1">
                    <mxGeometry width="50" height="50" relative="1" as="geometry">
                        <mxPoint x="240.91999999999996" y="118.25" as="sourcePoint"/>
                        <mxPoint x="424.24504912474504" y="103.51047594762167" as="targetPoint"/>
                    </mxGeometry>
                </mxCell>
                <mxCell id="56" value="&lt;span style=&quot;font-size: 16px&quot;&gt;See patient history&lt;/span&gt;" style="ellipse;whiteSpace=wrap;html=1;fontSize=15;strokeWidth=7;" parent="1" vertex="1">
                    <mxGeometry x="1190" y="205" width="190" height="110" as="geometry"/>
                </mxCell>
                <mxCell id="53" value="" style="endArrow=classic;html=1;fontSize=16;exitX=0.5;exitY=0.5;exitDx=0;exitDy=0;exitPerimeter=0;entryX=-0.003;entryY=0.641;entryDx=0;entryDy=0;entryPerimeter=0;" parent="1" source="13" target="43" edge="1">
                    <mxGeometry width="50" height="50" relative="1" as="geometry">
                        <mxPoint x="450" y="460" as="sourcePoint"/>
                        <mxPoint x="500" y="410" as="targetPoint"/>
                    </mxGeometry>
                </mxCell>
                <mxCell id="81" value="&amp;lt;&amp;lt;extends&amp;gt;&amp;gt;" style="edgeStyle=none;html=1;exitX=0;exitY=1;exitDx=0;exitDy=0;entryX=1;entryY=0;entryDx=0;entryDy=0;dashed=1;" parent="1" source="76" target="36" edge="1">
                    <mxGeometry relative="1" as="geometry"/>
                </mxCell>
                <mxCell id="111" value="&amp;lt;&amp;lt;extend&amp;gt;&amp;gt;" style="edgeStyle=none;html=1;exitX=0.5;exitY=0;exitDx=0;exitDy=0;entryX=0.5;entryY=1;entryDx=0;entryDy=0;dashed=1;" edge="1" parent="1" source="76" target="103">
                    <mxGeometry relative="1" as="geometry"/>
                </mxCell>
                <mxCell id="76" value="&lt;font style=&quot;font-size: 16px&quot;&gt;Login to personal page&lt;/font&gt;" style="ellipse;whiteSpace=wrap;html=1;fontSize=15;strokeWidth=7;" parent="1" vertex="1">
                    <mxGeometry x="1880" y="30" width="190" height="110" as="geometry"/>
                </mxCell>
                <mxCell id="77" value="&lt;font style=&quot;font-size: 16px&quot;&gt;Send notification to a patient&lt;/font&gt;" style="ellipse;whiteSpace=wrap;html=1;fontSize=15;strokeWidth=7;" parent="1" vertex="1">
                    <mxGeometry x="1010" y="295" width="190" height="110" as="geometry"/>
                </mxCell>
                <mxCell id="83" value="&lt;span style=&quot;font-size: 16px&quot;&gt;Change plan and status of treatment&lt;br&gt;&lt;/span&gt;" style="ellipse;whiteSpace=wrap;html=1;fontSize=15;strokeWidth=7;" parent="1" vertex="1">
                    <mxGeometry x="1280" y="20" width="210" height="110" as="geometry"/>
                </mxCell>
                <mxCell id="58" value="&amp;lt;&amp;lt;include&amp;gt;&amp;gt;" style="text;html=1;align=center;verticalAlign=middle;resizable=0;points=[];autosize=1;strokeColor=none;fillColor=none;strokeWidth=10;" parent="1" vertex="1">
                    <mxGeometry x="1530" y="185" width="80" height="20" as="geometry"/>
                </mxCell>
                <mxCell id="88" value="" style="edgeStyle=none;html=1;exitX=0;exitY=0;exitDx=0;exitDy=0;dashed=1;endArrow=none;" parent="1" source="36" target="58" edge="1">
                    <mxGeometry relative="1" as="geometry">
                        <mxPoint x="1677.5238514758248" y="276.28417707629296" as="sourcePoint"/>
                        <mxPoint x="1448.8275943872554" y="118.6715119491746" as="targetPoint"/>
                    </mxGeometry>
                </mxCell>
                <mxCell id="93" style="edgeStyle=none;html=1;exitX=0;exitY=1;exitDx=0;exitDy=0;dashed=1;entryX=1;entryY=0;entryDx=0;entryDy=0;" parent="1" source="91" target="7" edge="1">
                    <mxGeometry relative="1" as="geometry">
                        <mxPoint x="832.2159235859494" y="-446.80398089648725" as="targetPoint"/>
                    </mxGeometry>
                </mxCell>
                <mxCell id="116" value="&amp;lt;&amp;lt;extend&amp;gt;&amp;gt;" style="edgeLabel;html=1;align=center;verticalAlign=middle;resizable=0;points=[];" connectable="0" vertex="1" parent="93">
                    <mxGeometry x="0.0222" y="1" relative="1" as="geometry">
                        <mxPoint as="offset"/>
                    </mxGeometry>
                </mxCell>
                <mxCell id="95" style="edgeStyle=none;html=1;exitX=0.5;exitY=1;exitDx=0;exitDy=0;entryX=0.5;entryY=0;entryDx=0;entryDy=0;" parent="1" source="91" target="94" edge="1">
                    <mxGeometry relative="1" as="geometry"/>
                </mxCell>
                <mxCell id="97" style="edgeStyle=none;html=1;exitX=1;exitY=1;exitDx=0;exitDy=0;" parent="1" source="91" target="96" edge="1">
                    <mxGeometry relative="1" as="geometry"/>
                </mxCell>
                <mxCell id="110" value="&amp;lt;&amp;lt;extend&amp;gt;&amp;gt;" style="edgeStyle=none;html=1;exitX=0;exitY=0;exitDx=0;exitDy=0;entryX=1;entryY=0.5;entryDx=0;entryDy=0;dashed=1;" edge="1" parent="1" source="91" target="108">
                    <mxGeometry relative="1" as="geometry"/>
                </mxCell>
                <mxCell id="91" value="&lt;span style=&quot;font-size: 16px&quot;&gt;Login to personal page&lt;br&gt;&lt;/span&gt;" style="ellipse;whiteSpace=wrap;html=1;fontSize=15;strokeWidth=7;" parent="1" vertex="1">
                    <mxGeometry x="960" y="-580" width="190" height="110" as="geometry"/>
                </mxCell>
                <mxCell id="114" style="edgeStyle=none;html=1;exitX=0;exitY=0.5;exitDx=0;exitDy=0;entryX=1;entryY=0.3333333333333333;entryDx=0;entryDy=0;entryPerimeter=0;dashed=1;" edge="1" parent="1" source="94" target="13">
                    <mxGeometry relative="1" as="geometry">
                        <Array as="points">
                            <mxPoint x="420" y="-370"/>
                            <mxPoint x="140" y="-230"/>
                        </Array>
                    </mxGeometry>
                </mxCell>
                <mxCell id="115" style="edgeStyle=none;html=1;exitX=1;exitY=0.5;exitDx=0;exitDy=0;entryX=0.25;entryY=0.1;entryDx=0;entryDy=0;entryPerimeter=0;dashed=1;targetPerimeterSpacing=5;" edge="1" parent="1" source="94" target="14">
                    <mxGeometry relative="1" as="geometry">
                        <Array as="points">
                            <mxPoint x="1770" y="-70"/>
                        </Array>
                    </mxGeometry>
                </mxCell>
                <mxCell id="94" value="&lt;span style=&quot;font-size: 16px&quot;&gt;Assign a doctor, service to a patient&lt;br&gt;&lt;/span&gt;" style="ellipse;whiteSpace=wrap;html=1;fontSize=15;strokeWidth=7;" parent="1" vertex="1">
                    <mxGeometry x="840" y="-330" width="230" height="120" as="geometry"/>
                </mxCell>
                <mxCell id="96" value="&lt;span style=&quot;font-size: 16px&quot;&gt;Generate report&lt;br&gt;&lt;/span&gt;" style="ellipse;whiteSpace=wrap;html=1;fontSize=15;strokeWidth=7;" parent="1" vertex="1">
                    <mxGeometry x="1190" y="-420" width="230" height="120" as="geometry"/>
                </mxCell>
                <mxCell id="103" value="&lt;font style=&quot;font-size: 16px&quot;&gt;Invalid password&lt;/font&gt;" style="ellipse;whiteSpace=wrap;html=1;fontSize=15;strokeWidth=7;" vertex="1" parent="1">
                    <mxGeometry x="1910" y="-185" width="190" height="110" as="geometry"/>
                </mxCell>
                <mxCell id="104" value="&amp;lt;&amp;lt;extend&amp;gt;&amp;gt;" style="text;html=1;resizable=0;autosize=1;align=center;verticalAlign=middle;points=[];fillColor=none;strokeColor=none;rounded=0;fontSize=16;rotation=-100;" vertex="1" parent="1">
                    <mxGeometry x="220" y="-205" width="100" height="20" as="geometry"/>
                </mxCell>
                <mxCell id="105" value="" style="endArrow=none;dashed=1;html=1;dashPattern=1 3;strokeWidth=2;fontSize=16;entryX=-0.003;entryY=0.608;entryDx=0;entryDy=0;entryPerimeter=0;exitX=0.5;exitY=0;exitDx=0;exitDy=0;" edge="1" parent="1" target="104" source="23">
                    <mxGeometry width="50" height="50" relative="1" as="geometry">
                        <mxPoint x="90" y="-218" as="sourcePoint"/>
                        <mxPoint x="-130" y="-170" as="targetPoint"/>
                    </mxGeometry>
                </mxCell>
                <mxCell id="106" value="" style="endArrow=none;dashed=1;html=1;dashPattern=1 3;strokeWidth=2;fontSize=16;exitX=1.009;exitY=0.478;exitDx=0;exitDy=0;exitPerimeter=0;entryX=0.5;entryY=1;entryDx=0;entryDy=0;" edge="1" parent="1" source="104" target="109">
                    <mxGeometry width="50" height="50" relative="1" as="geometry">
                        <mxPoint x="100" y="-208" as="sourcePoint"/>
                        <mxPoint x="350" y="-220" as="targetPoint"/>
                    </mxGeometry>
                </mxCell>
                <mxCell id="108" value="&lt;font style=&quot;font-size: 16px&quot;&gt;Invalid password&lt;/font&gt;" style="ellipse;whiteSpace=wrap;html=1;fontSize=15;strokeWidth=7;" vertex="1" parent="1">
                    <mxGeometry x="640" y="-680" width="190" height="110" as="geometry"/>
                </mxCell>
                <mxCell id="109" value="&lt;font style=&quot;font-size: 16px&quot;&gt;invalidPassword&lt;/font&gt;" style="ellipse;whiteSpace=wrap;html=1;fontSize=15;strokeWidth=7;" vertex="1" parent="1">
                    <mxGeometry x="110" y="-440" width="190" height="110" as="geometry"/>
                </mxCell>
            </root>
        </mxGraphModel>
    </diagram>
</mxfile>